<svg xmlns="http://www.w3.org/2000/svg" version="1.2" viewBox="165.22 135.5 369.58 290.1">
	<title>noun-mug-60829-svg</title>
	<style>
		.s0 { fill: #000000 } 
	</style>
	<g id="Layer">
		<path id="Layer" fill-rule="evenodd" class="s0" d="m533.7 166.3l-33.6 236.3c0 16.8-67.2 23-112.6 23-45.3 0-112.5-6.2-112.5-23l-1.7-12.8c-2.8 0.5-6.2 0.5-9 0.5-48.7 0-90.7-38.1-98-88.5-7.8-53.7 27.5-104.1 78.4-113.6l-2.8-21.9v-1.7c0-19 73.4-29.1 146.2-29.1 71.1 0 143.3 9.5 146.1 28 0.6 0 0.6 0.6 0.6 1.1 0 0.6-0.6 0.6-0.6 1.2 0 0-0.5 0.5-0.5 0.5zm-285.6-2.2v1.7c0 0 0 0.5 0.5 1.1l0.6 0.5c0.6 0.6 1.1 0.6 1.1 0.6 0.6 0.6 1.1 1.1 2.3 1.7h0.5c3.9 2.2 10.7 4.5 18.5 6.7 25.8-6.7 68.3-11.2 116.5-11.2 48.1 0 90.7 4.5 116.5 11.2q12.6-3.4 18.4-6.7h0.6c1.1-0.6 1.7-1.1 2.2-1.7l1.7-1.7c0 0 0.6-0.5 0.6-1.1 0.5-0.6 0.5-0.6 0.5-1.1 0-9.5-53.2-23.5-140.5-23.5-86.3 0-139.5 13.4-140 23.5zm25.7 218.4h0.6c0 0 0.5-0.6 0.5-1.1 0 0 0.6-0.6 0.6-1.2 0-0.5 0.6-0.5 0.6-1.1 0 0 0.5-0.6 0.5-1.1 0.6-0.6 0.6-0.6 0.6-1.1 0.5-0.6 0.5-1.2 0.5-1.7v-8.4c-0.5-0.6-0.5-1.1-0.5-1.7v-0.5c0-0.6-0.6-1.2-0.6-1.7v-0.6c0 0-0.5-0.6-0.5-1.1v-0.6c0 0-0.6-0.5-0.6-1.1-0.6 0-0.6-0.5-0.6-0.5 0-0.6-0.5-0.6-0.5-1.2v-0.5c0-0.6-0.6-0.6-0.6-1.1v-0.6c0-0.6-0.5-0.6-0.5-1.1 0-0.6-0.6-1.1-0.6-1.1l-1.1-1.2c-2.3 0.6-5.1 0.6-7.3 0.6-31.9 0-58.8-24.1-63.3-56.6-5-35.2 18.5-67.7 52.1-73.3 0-0.6 0.6-0.6 0.6-1.1 0.5-0.6 1.1-1.2 1.1-1.7 0.5-0.6 0.5-0.6 0.5-1.1 0-0.6 0.6-1.2 0.6-1.7 0.6-0.6 0.6-0.6 0.6-1.1 0.5-0.6 0.5-1.2 0.5-1.7v-10.7c-0.5-0.5-0.5-0.5-0.5-1.1-0.6 0-0.6-0.6-0.6-0.6 0-0.5-0.6-0.5-0.6-1.1-0.5 0-0.5-0.5-0.5-0.5 0-0.6-0.6-0.6-0.6-1.2-0.5 0-0.5-0.5-0.5-0.5 0-0.6-0.6-0.6-0.6-1.1-0.5 0-0.5-0.6-0.5-0.6 0-0.6-0.6-0.6-0.6-1.1l-1.1-1.1v-0.6l-1.7-1.7h-0.6c-49.2 8.4-83.4 56-76.1 108.1 6.7 47.6 46.5 83.5 92.4 83.5 3.3 0 7.3 0 8.9-1.7zm-67.2-86.8c4.5 29.7 29.2 52.1 57.7 52.1h3.4l-16.8-118.2c-28.6 6.2-48.2 35.3-44.3 66.1zm320.4-121.5c-1.2 1.1-2.8 1.6-4 2.2 0 0.6-0.5 0.6-0.5 0.6-21.9 10.6-71.7 16.8-123.2 17.3h-22.4c-51.5-1.1-101.4-6.7-123.2-17.3 0-0.6-0.6-0.6-0.6-0.6-1.7-0.6-2.8-1.7-3.9-2.2l1.7 13.4c0.5 0 0.5 0.6 1.1 0.6 1.7 1.6 11.2 10 10.6 23.5 0 5-1.1 10.1-5 16.2-0.6 0.6-0.6 1.1-1.1 1.1l16.8 118.8c0.5 0 0.5 0 1.1 0.5 7.8 6.7 18.5 23.5 5.6 39.8l-0.6 0.5 1.7 12.9c0 6.7 37 17.9 107 17.9 70 0 106.9-11.2 106.9-17.3z"/>
	</g>
</svg>