<svg xmlns="http://www.w3.org/2000/svg" version="1.2" viewBox="171.9 127.45 355.6 304.85">
	<title>noun-pie-60835-svg</title>
	<style>
		.s0 { fill: #000000 } 
	</style>
	<g id="Layer">
		<path id="Layer" fill-rule="evenodd" class="s0" d="m177 411.6c-0.6 0-1.2 0-1.7-0.6-0.6-0.5-1.1-1.1-1.1-2.2l2.2-127.1c0-1.1 1.1-2.8 2.2-2.8l328.8-47.1c1.1 0 1.6 0 2.2 0.6 0.6 0.6 1.1 1.1 1.1 2.2v89.6c0 21.3-15.7 39.2-36.9 42.6l-296.8 44.8q0 0 0 0zm0 0q0.8 0 0 0zm5-127.7l-2.3 121.5 293.5-44.8c18.4-2.8 31.9-18.4 31.9-36.9v-86.3z"/>
		<path id="Layer" fill-rule="evenodd" class="s0" d="m174.7 432.3c-0.5 0-1.1 0-1.7-0.5-0.5-0.6-1.1-1.2-1.1-2.3v-19.6c0-1.1 1.1-2.8 2.3-2.8l299-46.5c18.5-2.8 31.9-18.4 31.9-36.9v-76.2l-326.5 47.1h-0.5c-2.8 0-5.6-2.3-5.6-5.6v-6.8c0-1.1 1.1-2.8 2.2-2.8l329.9-47.6c0-3.3 0.5-8.9 3.3-12.3 1.7-1.7 3.9-2.8 6.7-2.8 8.4 0 12.9 5.6 12.9 15.1v130.5c0 9.5-6.7 17.4-16.2 18.5zm2.2-20.2v14l334.3-50.9c6.8-1.1 11.2-6.7 11.2-13.5v-129.9c0-6.1-2.8-9.5-7.2-9.5-1.2 0-1.7 0.6-2.3 1.1-2.2 2.8-2.2 9-2.2 10.7 0 1.6-1.1 2.8-2.3 2.8l-329.8 47.6v4.4l329.3-47.6c0.5 0 1.7 0 2.2 0.6 0.6 0.6 1.1 1.1 1.1 2.2v79.6c0 21.2-15.6 39.2-36.9 42.5z"/>
		<path id="Layer" fill-rule="evenodd" class="s0" d="m389.2 233.5c-37.5 0-67.2-12.3-67.2-28 0-6.1 4.5-12.3 13.4-16.8-1.6-2.2-2.2-3.9-2.2-6.1 0-5.6 4.5-10.7 12.9-15.2-1.1-1.6-1.7-3.9-1.7-6.1 0-11.8 19-21.3 43.1-21.3 6.7 0 15.7-4.5 16.8-10.1 0-1.1 1.1-1.7 1.7-2.2 1.1-0.6 2.2 0 2.8 0.5 0.6 0.6 9 7.3 9.5 18 8.4 3.9 12.9 9.5 12.9 15.1 0 2.2-0.6 4.5-1.7 6.1 7.9 4 12.3 9 12.3 14.6 0 1.7-0.5 3.4-1.1 5 10.1 5.1 15.7 11.2 15.7 18 0 16.2-29.7 28.5-67.2 28.5zm19-98c-3.9 6.2-12.8 10.1-20.1 10.1-22.4 0-37.5 8.4-37.5 15.7 0 1.7 0.5 3.3 2.2 5 0.6 0.6 1.1 1.7 0.6 2.3 0 1.1-0.6 1.6-1.7 2.2-7.9 3.4-12.9 7.3-12.9 11.2 0 1.7 0.6 3.4 2.2 5 0.6 0.6 1.2 1.7 0.6 2.3-0.6 0.5-0.6 1.6-1.7 2.2-7.8 4.5-12.3 9.5-12.3 14 0 10.7 25.2 22.4 61.6 22.4 36.4 0 61.6-11.7 61.6-22.4 0-5-5.6-10.1-15.1-14-1.1-0.5-1.7-1.1-1.7-2.2 0-1.1 0-1.7 0.6-2.3 1.1-1.6 1.6-2.8 1.6-4.4 0-4-4.4-7.9-12.3-11.2-1.1-0.6-1.7-1.2-1.7-2.3 0-1.1 0-1.7 0.6-2.2 1.7-1.7 2.8-3.4 2.8-5.6 0-3.9-3.9-7.9-11.2-10.7-1.1-0.5-1.7-1.6-1.7-2.8 0-5-2.2-9.5-4.5-12.3z"/>
		<path id="Layer" class="s0" d="m409.4 161.8c-1.2 0-1.7-0.5-2.3-1.1-0.5-1.1-0.5-2.8 1.1-3.9 5.6-3.4 4.5-12.3 4.5-12.3 0-1.7 0.6-2.8 2.3-3.4 1.6 0 2.8 0.6 3.3 2.3 0 0.5 2.3 12.8-7.3 17.9-0.5 0-1.1 0.5-1.6 0.5z"/>
		<path id="Layer" class="s0" d="m351.7 196.6c0 0-0.6 0 0 0-11.8-1.2-16.8-9-16.8-9.6-0.6-1.1 0-2.8 1.1-3.9 1.1-0.5 2.8 0 3.9 1.1 0 0.6 3.4 5.6 12.3 6.8 1.7 0 2.8 1.6 2.8 2.8-1.1 1.6-2.2 2.8-3.3 2.8z"/>
		<path id="Layer" class="s0" d="m402.6 207.8c-1.1 0-2.2-1.2-2.8-2.3-0.5-1.7 0.6-2.8 2.3-3.3 7.8-1.7 29.7-8.4 33-17.4 0.6-1.7 2.3-2.2 3.4-1.7 1.7 0.6 2.2 2.3 1.7 3.4-5.1 13.4-34.2 20.1-37.6 21.3q0.9 0 0 0z"/>
		<path id="Layer" class="s0" d="m493.4 221.8c-0.6 0-1.2 0-1.7-0.6-0.6-0.6-7.3-6.7-4.5-13.4 0.6-1.7 2.2-2.3 3.4-1.7 1.6 0.5 2.2 2.2 1.6 3.3-0.5 1.2 0 2.8 0.6 4 1.7-1.7 2.8-2.8 3.4-2.8 1.1-0.6 2.8 0 3.9 1.1 0.5 1.1 0 2.8-1.1 3.9 0 0-1.7 1.1-2.8 3.9 0 1.1-1.2 1.7-1.7 1.7-0.6 0.6-1.1 0.6-1.1 0.6z"/>
		<path id="Layer" class="s0" d="m455.3 201c-1.1 0-1.7-0.5-2.3-1.1-3.3-4.5-2.2-8.9-2.2-9.5 0.6-1.7 2.2-2.2 3.4-1.7 1.6 0.6 2.2 2.3 1.6 3.4 0 0-0.5 2.2 1.2 3.9 1.1 1.1 0.5 2.8-0.6 3.9 0 0.6-0.6 1.1-1.1 1.1z"/>
		<path id="Layer" class="s0" d="m463.7 203.8c-1.1 0-2.3-0.5-2.3-1.6-2.2-4-1.1-7.9 0-9 0.6-1.1 2.8-1.7 4-0.6 1.1 0.6 1.6 2.8 1.1 4 0 0-0.6 1.6 0 3.3 0.5 1.1 0 2.8-1.1 3.9q-1.7 0-1.7 0z"/>
		<path id="Layer" class="s0" d="m472.1 207.2c-1.1 0-1.7-0.6-2.3-1.7-2.2-3.3-1.1-7.3 0-8.9 0.6-1.2 2.3-1.7 4-1.2 1.1 0.6 1.6 2.3 1.1 4 0 0-1.1 1.6 0 3.3 0.5 1.1 0.5 2.8-1.1 3.9-1.2 0.6-1.2 0.6-1.7 0.6z"/>
		<path id="Layer" fill-rule="evenodd" class="s0" d="m507.9 237.4q0 0 0 0 0 0 0 0 0.9 0 0 0zm-2.2-1.1c-12.3-17.3-38.7-30.2-58.8-37.5-0.6 0-0.6-0.6-1.1-0.6-2.8-2.2-6.2-4.4-10.7-6.7-0.5-0.5-1.1-1.1-1.1-2.2 0-1.1 0-1.7 0.6-2.3 1.1-1.6 1.6-2.8 1.6-4.4 0-1.2-0.5-2.3-1.1-3.4q-0.8-1.7 0-3.4c0.6-1.1 1.7-1.6 2.8-1.1 54.9 11.8 84 42.6 85.1 43.7 1.2 1.1 1.2 2.8 0 3.9-1.1 1.1-2.8 1.7-3.9 1.1-1.1-0.5-2.2-1.1-3.9-1.1-1.1 0-1.7 0.6-2.2 1.1-2.3 2.8-2.3 9-2.3 10.7 0.6 1.7-0.5 2.8-2.8 3.3-1.1 0-1.7-0.5-2.2-1.1zm-56-43.1c25.7 9.5 44.8 21.3 56 33.6 0.5-2.8 1.1-5.6 3.3-7.3 1.2-1.1 2.8-2.2 4.5-2.8-10.6-8.9-34.7-26.3-71.7-35.3v1.2c0 1.6-0.5 3.3-1.1 5 3.4 1.7 6.2 3.4 9 5.6z"/>
		<path id="Layer" fill-rule="evenodd" class="s0" d="m177.8 285c-1.1 0-2.2-0.5-2.8-2.2-0.5-1.1 0-2.8 1.7-3.4l152.9-68.3c1.1-0.5 2.2 0 3.4 0.6 8.9 9.5 31.9 15.7 58.2 15.7 36.4 0 61.6-11.8 61.6-22.4 0-2.8-1.7-5.1-4.5-7.9-1.1-1.1-1.1-2.2-0.5-3.3 0.5-1.2 2.2-1.7 3.3-1.2 30.3 11.2 51 24.7 61.6 39.8 0.6 0.6 0.6 1.7 0 2.8-0.5 1.1-1.1 1.7-2.2 1.7zm151.7-67.8l-132.7 59.4 308-44.3c-11.2-13.4-30.8-23.5-47.6-30.8 0.6 1.2 0.6 2.8 0.6 4 0 15.6-29.7 28-67.2 28-26.3 0-50.4-6.2-61.1-16.3z"/>
	</g>
</svg>